<?xml version="1.0" encoding="utf-8"?>
<svg xmlns="http://www.w3.org/2000/svg" style="display: none;">
<symbol id="avidreader-icon-bookmark" viewBox="0 0 150 150">
<path style="fill:#231F20;" d="M113.441,134.585c-1.262,0-2.508-0.452-3.489-1.321L75,102.35l-34.952,30.914
	c-1.552,1.372-3.763,1.707-5.651,0.856s-3.103-2.729-3.103-4.8V20.68c0-2.908,2.357-5.265,5.265-5.265h76.88
	c2.908,0,5.265,2.357,5.265,5.265v108.64c0,2.071-1.214,3.949-3.102,4.8C114.91,134.433,114.173,134.585,113.441,134.585z
	 M75,90.056c1.246,0,2.492,0.44,3.488,1.321l29.688,26.258V25.945H41.825v91.689l29.687-26.258
	C72.508,90.496,73.754,90.056,75,90.056z"/>

</symbol>
<symbol id="avidreader-icon-flag" viewBox="0 0 150 150">
<g>
	<path style="fill:#231F20;" d="M104.65,91.425c-9.783,0-18.813-1.916-27.547-3.77l-0.356-0.075
		c-2.781-0.59-5.606-1.356-8.339-2.098c-5.832-1.582-11.862-3.218-17.748-3.218c-10.074,0-16.151,1.199-19.476,2.204
		c-1.596,0.483-3.324,0.182-4.663-0.812c-1.338-0.993-2.127-2.562-2.127-4.228V23.86c0-2.134,1.288-4.057,3.261-4.869
		c2.306-0.949,9.163-3.156,23.004-3.156c9.649,0,18.866,2.003,26.998,3.77c1.176,0.255,2.354,0.519,3.537,0.783
		c7.354,1.642,14.957,3.339,23.037,3.347c5.131-0.117,10.306-0.549,15.382-1.285c1.516-0.22,3.047,0.229,4.201,1.229
		c1.155,1,1.819,2.453,1.819,3.981v57c0,0.817-0.19,1.623-0.556,2.354c-0.76,1.521-2.247,2.66-3.926,2.926
		c-5.403,0.855-10.914,1.354-16.379,1.483C104.733,91.425,104.691,91.425,104.65,91.425z M120.33,84.74h0.01H120.33z M50.66,71.735
		c7.288,0,14.007,1.823,20.504,3.585c2.712,0.736,5.274,1.431,7.767,1.959l0.357,0.076c8.183,1.736,16.644,3.531,25.3,3.54
		c3.501-0.085,7.022-0.336,10.517-0.748v-46.54c-3.559,0.356-7.139,0.576-10.698,0.656c-0.039,0.001-0.078,0.001-0.117,0.001
		c-9.263,0-17.461-1.831-25.39-3.601c-1.163-0.26-2.322-0.519-3.479-0.77c-7.985-1.735-16.243-3.53-24.762-3.53
		c-7.746,0-12.781,0.742-15.735,1.407v45.083C39.483,72.11,44.748,71.735,50.66,71.735z"/>
</g>
<g>
	<path style="fill:#231F20;" d="M29.63,139.185c-2.908,0-5.265-2.356-5.265-5.265V16.08c0-2.908,2.357-5.265,5.265-5.265
		s5.265,2.357,5.265,5.265v117.84C34.895,136.828,32.538,139.185,29.63,139.185z"/>
</g>

</symbol>
<symbol id="avidreader-icon-heart" viewBox="0 0 150 150">
<g>
	<path style="fill:#231F20;" d="M75,129.824c-1.23,0-2.459-0.429-3.449-1.287l-48.44-42l-1.613-1.436
		C14.082,78.666,9.585,69.666,8.887,59.804s2.486-19.406,8.966-26.874c7.035-8.107,17.224-12.755,27.957-12.755
		c0.018,0,0.035,0,0.055,0c8.906,0,17.51,3.218,24.231,9.062L75,33.497l4.908-4.262c7.476-6.482,17.023-9.657,26.892-8.962
		c9.866,0.703,18.868,5.205,25.348,12.678c13.377,15.427,11.709,38.86-3.718,52.237l-1.52,1.332l-48.461,42.018
		C77.46,129.396,76.229,129.824,75,129.824z M45.81,30.705c-7.68,0-14.97,3.326-20.004,9.126
		c-4.637,5.343-6.915,12.172-6.416,19.229c0.5,7.057,3.717,13.497,9.061,18.133l1.611,1.435L75,117.591l46.511-40.341
		c11.061-9.591,12.254-26.361,2.682-37.401c-9.574-11.041-26.343-12.234-37.383-2.661l-8.357,7.257c-1.98,1.721-4.925,1.719-6.904,0
		l-8.36-7.26c-4.807-4.18-10.958-6.48-17.324-6.48c-0.011,0-0.02-0.001-0.029,0C45.826,30.705,45.818,30.705,45.81,30.705z"/>
</g>

</symbol>
<symbol id="avidreader-icon-link" viewBox="0 0 150 150">
<g>
	<path style="fill:#231F20;" d="M83.126,101.034c-8.753,0.001-17.504-3.329-24.168-9.99c-3.283-3.275-5.827-7.124-7.555-11.435
		c-1.082-2.698,0.229-5.764,2.927-6.846c2.7-1.083,5.764,0.228,6.846,2.927c1.194,2.978,2.951,5.636,5.222,7.902
		c9.225,9.221,24.228,9.221,33.45,0.004l18.32-18.301c9.214-9.219,9.214-24.222-0.003-33.443c-9.22-9.215-24.223-9.216-33.444,0.001
		l-8.999,9c-2.057,2.056-5.39,2.056-7.446,0c-2.056-2.056-2.056-5.39,0-7.446l9-9c13.326-13.319,35.01-13.32,48.334,0
		c13.322,13.327,13.322,35.01,0.002,48.336l-18.322,18.303C100.63,97.704,91.877,101.033,83.126,101.034z"/>
</g>
<g>
	<path style="fill:#231F20;" d="M48.555,135.584c-8.752,0-17.504-3.33-24.167-9.99c-13.321-13.328-13.321-35.011-0.001-48.336
		l18.323-18.303c13.324-13.319,35.008-13.319,48.333,0.001c2.812,2.806,5.092,6.053,6.776,9.651c1.232,2.633,0.098,5.768-2.536,7
		c-2.636,1.235-5.768,0.097-7.001-2.536c-1.162-2.483-2.737-4.726-4.681-6.666c-9.223-9.22-24.228-9.219-33.448-0.003L31.831,84.705
		c-9.214,9.218-9.214,24.222,0.003,33.443c9.22,9.215,24.224,9.217,33.444-0.002l8.999-8.999c2.057-2.057,5.391-2.057,7.446,0
		c2.057,2.056,2.057,5.39,0,7.445l-9,9C66.06,132.254,57.307,135.584,48.555,135.584z"/>
</g>

</symbol>
<symbol id="avidreader-icon-more" viewBox="0 0 150 150"><defs><style>.cls-1{fill:#231f20;}</style></defs><circle class="cls-1" cx="33.09" cy="75" r="12.39"/><circle class="cls-1" cx="75" cy="75" r="12.39"/><circle class="cls-1" cx="116.91" cy="75" r="12.39"/>
</symbol>
<symbol id="avidreader-icon-reply" viewBox="0 0 150 150">
<g>
	<path style="fill:#231F20;" d="M58.7,122.345c-1.348,0-2.695-0.514-3.723-1.542l-42.08-42.08c-2.056-2.056-2.056-5.39,0-7.446
		l42.08-42.08c2.057-2.056,5.39-2.056,7.446,0c2.056,2.056,2.056,5.39,0,7.446L24.066,75l38.357,38.357
		c2.056,2.056,2.056,5.39,0,7.445C61.395,121.831,60.048,122.345,58.7,122.345z"/>
</g>
<g>
	<path style="fill:#231F20;" d="M133.37,122.345c-2.908,0-5.265-2.356-5.265-5.265v-6.71c-0.005-16.595-13.511-30.101-30.106-30.105
		H16.87c-2.908,0-5.265-2.356-5.265-5.265c0-2.908,2.357-5.265,5.265-5.265H98c22.4,0.006,40.628,18.235,40.635,40.633v6.712
		C138.635,119.988,136.278,122.345,133.37,122.345z"/>
</g>

</symbol></svg>