<?xml version="1.0" encoding="utf-8"?>
<svg xmlns="http://www.w3.org/2000/svg" style="display: none;">
    <symbol id="avidreader-icon-link" viewBox="0 0 126 125">
        <path d="M71.02 90.12C66.3034 90.1288 61.6315 89.2058 57.2726 87.4039C52.9137 85.602 48.9537 82.9567 45.62 79.62C43.9818 77.9723 42.502 76.1744 41.2 74.25C40.6865 73.487 40.3284 72.6304 40.146 71.729C39.9636 70.8276 39.9605 69.8991 40.1369 68.9965C40.4933 67.1736 41.5591 65.567 43.1 64.53C44.6409 63.493 46.5307 63.1106 48.3535 63.4669C49.2561 63.6434 50.1151 63.9958 50.8815 64.5042C51.6478 65.0127 52.3065 65.667 52.82 66.43C53.6099 67.6126 54.5142 68.7146 55.52 69.72C59.6412 73.8114 65.2128 76.1075 71.02 76.1075C76.8272 76.1075 82.3989 73.8114 86.52 69.72L104.83 51.41C106.866 49.3745 108.48 46.958 109.582 44.2985C110.683 41.639 111.25 38.7886 111.25 35.91C111.25 33.0314 110.683 30.181 109.582 27.5215C108.48 24.862 106.866 22.4455 104.83 20.41C102.795 18.3745 100.378 16.7599 97.7186 15.6583C95.0591 14.5567 92.2086 13.9897 89.33 13.9897C86.4514 13.9897 83.601 14.5567 80.9415 15.6583C78.282 16.7599 75.8655 18.3745 73.83 20.41L67.17 27.07C66.52 27.72 65.7483 28.2357 64.8989 28.5875C64.0496 28.9393 63.1393 29.1204 62.22 29.1204C61.3007 29.1204 60.3904 28.9393 59.5411 28.5875C58.6918 28.2357 57.9201 27.72 57.27 27.07C56.62 26.42 56.1043 25.6482 55.7525 24.7989C55.4007 23.9496 55.2197 23.0393 55.2197 22.12C55.2197 21.2007 55.4007 20.2904 55.7525 19.4411C56.1043 18.5918 56.62 17.82 57.27 17.17L63.89 10.52C70.6305 3.77952 79.7726 -0.00723648 89.305 -0.00723648C98.8375 -0.00723648 107.98 3.77952 114.72 10.52C121.46 17.2605 125.247 26.4025 125.247 35.935C125.247 45.4675 121.46 54.6095 114.72 61.35L96.41 79.62C93.0782 82.9564 89.12 85.6015 84.7627 87.4035C80.4055 89.2054 75.7351 90.1286 71.02 90.12V90.12Z" fill="currentColor"/>
        <path d="M36.45 124.7C29.338 124.709 22.3835 122.606 16.4682 118.658C10.5529 114.709 5.9432 109.093 3.22357 102.522C0.503942 95.9506 -0.203107 88.7196 1.19201 81.7458C2.58714 74.7719 6.02162 68.3694 11.06 63.35L29.37 45.04C32.7047 41.7046 36.6637 39.0588 41.021 37.2537C45.3783 35.4485 50.0486 34.5194 54.765 34.5194C59.4814 34.5194 64.1517 35.4485 68.509 37.2537C72.8663 39.0588 76.8253 41.7046 80.16 45.04C81.6468 46.5302 83.0019 48.1462 84.21 49.87C85.1683 51.3927 85.5034 53.226 85.1459 54.9892C84.7884 56.7525 83.7657 58.3104 82.29 59.3397C80.8143 60.3689 78.999 60.7905 77.2208 60.5168C75.4425 60.2431 73.838 59.2953 72.74 57.87C71.9993 56.8019 71.1697 55.7983 70.26 54.87C66.1389 50.7786 60.5672 48.4825 54.76 48.4825C48.9528 48.4825 43.3811 50.7786 39.26 54.87L20.96 73.29C16.8492 77.4009 14.5397 82.9764 14.5397 88.79C14.5397 94.6036 16.8492 100.179 20.96 104.29C25.0709 108.401 30.6464 110.71 36.46 110.71C42.2736 110.71 47.8492 108.401 51.96 104.29L59.34 96.91C60.6528 95.5972 62.4334 94.8596 64.29 94.8596C66.1466 94.8596 67.9272 95.5972 69.24 96.91C70.5528 98.2228 71.2904 100.003 71.2904 101.86C71.2904 103.717 70.5528 105.497 69.24 106.81L61.89 114.18C58.5582 117.532 54.5934 120.188 50.2261 121.994C45.8588 123.8 41.176 124.72 36.45 124.7V124.7Z" fill="currentColor"/>
    </symbol>
        <symbol id="avidreader-icon-reply" viewBox="0 0 132 99">
        <path d="M49.59 98.43C48.6658 98.4432 47.7482 98.2733 46.89 97.9301C46.0318 97.5868 45.2501 97.077 44.59 96.43L2.56 54.35C1.90991 53.7 1.39425 52.9283 1.04242 52.079C0.690592 51.2296 0.509521 50.3193 0.509521 49.4C0.509521 48.4807 0.690592 47.5704 1.04242 46.7211C1.39425 45.8717 1.90991 45.1 2.56 44.45L44.64 2.35C45.2901 1.69996 46.0617 1.18432 46.9111 0.832516C47.7604 0.480715 48.6707 0.299644 49.59 0.299644C50.5093 0.299644 51.4196 0.480715 52.2689 0.832516C53.1182 1.18432 53.89 1.69996 54.54 2.35C55.1901 3.00005 55.7057 3.77176 56.0575 4.62108C56.4093 5.4704 56.5904 6.3807 56.5904 7.3C56.5904 8.2193 56.4093 9.1296 56.0575 9.97892C55.7057 10.8282 55.1901 11.6 54.54 12.25L17.41 49.35L54.54 86.48C55.5365 87.4562 56.2185 88.7079 56.4986 90.0744C56.7787 91.4409 56.6442 92.86 56.1123 94.1495C55.5804 95.439 54.6753 96.5402 53.5132 97.3118C52.3511 98.0834 50.9849 98.4902 49.59 98.48V98.43Z" fill="currentColor"/>
    <path d="M124.27 98.43C122.414 98.43 120.633 97.6925 119.32 96.3797C118.007 95.067 117.27 93.2865 117.27 91.43V84.72C117.259 77.1973 114.266 69.9859 108.945 64.6675C103.625 59.3491 96.4127 56.3579 88.89 56.35H7.76001C5.90349 56.35 4.123 55.6125 2.81024 54.2997C1.49749 52.987 0.76001 51.2065 0.76001 49.35C0.76001 47.4935 1.49749 45.713 2.81024 44.4003C4.123 43.0875 5.90349 42.35 7.76001 42.35H88.89C100.125 42.3606 110.897 46.8276 118.842 54.771C126.787 62.7143 131.257 73.4851 131.27 84.72V91.43C131.27 93.2865 130.533 95.067 129.22 96.3797C127.907 97.6925 126.127 98.43 124.27 98.43V98.43Z" fill="currentColor"/>
    </symbol>
    <symbol id="avidreader-icon-thumbtack" viewBox="0 0 78 123">
        <path d="M56.46 46.7V22.7C60.6656 22.282 64.6285 20.5346 67.7736 17.7114C70.9186 14.8882 73.0821 11.1362 73.95 7V7C74.0002 6.18736 73.8846 5.373 73.61 4.6065C73.3355 3.84 72.9078 3.13739 72.353 2.54146C71.7983 1.94553 71.128 1.46874 70.3831 1.14013C69.6382 0.811513 68.8341 0.637948 68.02 0.630001H8.89C8.07681 0.774728 7.30225 1.0858 6.61484 1.54373C5.92743 2.00166 5.34198 2.59659 4.89514 3.29125C4.4483 3.98592 4.1497 4.76537 4.01804 5.58078C3.88638 6.39619 3.9245 7.23 4.13 8.03C5.16063 11.9403 7.35922 15.4432 10.4324 18.0715C13.5056 20.6998 17.3072 22.3284 21.33 22.74V46.74C15.3103 49.6697 10.1692 54.1341 6.42448 59.6836C2.67979 65.233 0.463874 71.6714 0 78.35C0.104969 79.8486 0.768291 81.2533 1.85887 82.2865C2.94944 83.3197 4.38792 83.9061 5.89 83.93H31.69V114.93C31.69 116.829 32.4444 118.65 33.7871 119.993C35.1299 121.336 36.951 122.09 38.85 122.09C40.7489 122.09 42.5701 121.336 43.9129 119.993C45.2556 118.65 46.01 116.829 46.01 114.93V83.93H71.89C73.3921 83.9061 74.8306 83.3197 75.9211 82.2865C77.0117 81.2533 77.675 79.8486 77.78 78.35C77.3239 71.6654 75.1127 65.2194 71.3694 59.6625C67.6262 54.1056 62.4834 49.6343 56.46 46.7Z" fill="currentColor"/>
    </symbol>
</svg>